<svg xmlns="http://www.w3.org/2000/svg" id="Layer_1" style="enable-background:new 0 0 890.5 375.3;" viewBox="0 0 890.5 375.3" x="0px" y="0px" version="1.1" xmlns:xml="http://www.w3.org/XML/1998/namespace" xml:space="preserve" xmlns:xlink="http://www.w3.org/1999/xlink">
<style type="text/css">
	.st0{fill:#D1D5DA;}
	.st1{fill:#3D3D3D;}
	.st2{fill:#959DA4;}
	.st3{fill:#586069;}
	.st4{fill:#6A737D;}
	.st5{fill:#DCA82D;}
	.st6{fill:#B18621;}
	.st7{fill:#FFDD6A;}
	.st8{fill:#FFE888;}
	.st9{fill:#C6E2FD;}
	.st10{fill:#FAC237;}
	.st11{opacity:0.3;fill:#E55B22;enable-background:new    ;}
	.st12{fill:#FFD050;}
	.st13{fill:#014486;}
	.st14{fill:#0260C1;}
	.st15{fill:#71603B;}
	.st16{fill:#77BAFC;}
	.st17{fill:#036AD2;}
	.st18{fill:#178CFA;}
	.st19{fill:#DAEEFE;}
	.st20{opacity:0.3;fill:#F6F8FA;enable-background:new    ;}
	.st21{fill:none;stroke:#FAC237;stroke-width:2;stroke-linecap:round;stroke-miterlimit:10;}
	.st22{fill:#FFCFAF;}
	.st23{fill:none;stroke:#0260C1;stroke-linecap:round;stroke-miterlimit:10;}
	.st24{fill:none;stroke:#71603B;stroke-width:2;stroke-linecap:round;stroke-miterlimit:10;}
	.st25{fill:none;stroke:#B9BDC1;stroke-width:5;stroke-linecap:round;stroke-miterlimit:10;}
	.st26{fill:none;stroke:#92989D;stroke-width:3;stroke-linecap:round;stroke-miterlimit:10;}
	.st27{fill:#92989D;}
	.st28{fill:#B9BDC1;}
	.st29{fill:#ADB1B4;}
	.st30{fill:#686868;}
	.st31{fill:#FAFBFC;}
	.st32{fill:#E1E4E8;}
	.st33{fill:none;stroke:#F86324;stroke-width:2;stroke-miterlimit:10;}
	.st34{fill:none;stroke:#178CFA;stroke-width:3;stroke-miterlimit:10;}
	.st35{fill:none;stroke:#022F60;stroke-width:2;stroke-miterlimit:10;}
	.st36{fill:#494949;}
	.st37{fill:#FFFADF;}
	.st38{fill:#7E7E7E;}
	.st39{fill:#4B4B4B;}
	.st40{fill:none;stroke:#036AD2;stroke-width:2;stroke-miterlimit:10;}
</style>
<path class="st0" d="M 318.9 315.3 l -34 33 l 3 4.7 l 2.9 0.3 l 32.1 -35.3 L 318.9 315.3 Z" />
<path class="st1" d="M 308.9 362.3 l -7.3 -1.3 l -1.5 -3.7 l 44.3 -40 l -0.8 7.3 L 308.9 362.3 Z" />
<path class="st2" d="M 322.3 315.1 l -34 33.2 l 2.5 5 l 34.8 -35 L 322.3 315.1 Z" />
<path class="st3" d="M 300 357.3 l 8 1 l 27.2 -26.5 l -6 -2.5 L 300 357.3 Z" />
<path class="st4" d="M 331.6 310.7 l -29.6 26.8 l 11.2 9.5 l 33.1 -33.1 C 342 310.7 334.2 308.7 331.6 310.7 L 331.6 310.7 Z" />
<path class="st3" d="M 346.5 313.9 L 313.3 347 l 4.7 4 c 13 -9 20.5 -23.2 29.9 -36 c -0.4 -0.4 -0.8 -0.7 -1.3 -1 C 346.5 313.9 346.5 313.9 346.5 313.9 L 346.5 313.9 Z" />
<path class="st4" d="M 347.9 315 c -9.3 12.7 -16.9 27 -29.9 36 l 6.5 5.5 l 26.8 -30.3 l 0.2 -0.3 C 353.5 323.2 351.9 318.6 347.9 315 L 347.9 315 Z" />
<path class="st2" d="M 302.1 337.5 c 3.4 -2.7 10.2 -1.7 16.1 2.7 c 6.5 4.9 9.5 12 6.6 15.9 l -0.3 0.4 c -3.1 3.5 -10.5 2.7 -16.8 -2 c -6.5 -4.9 -9.5 -12 -6.6 -15.9 C 301.3 338.2 301.7 337.8 302.1 337.5 L 302.1 337.5 Z" />
<path class="st5" d="M 366.6 304.4 L 337 321.6 l 3.2 20.2 l 27.8 13 l 0.6 -0.7 C 365 338.5 362.8 320 366.6 304.4 L 366.6 304.4 Z" />
<path class="st6" d="M 413.3 277.3 l -46.7 27.1 c -3.8 15.6 -1.6 34 2 49.7 l 45.6 -56.5 L 413.3 277.3 Z" />
<path d="M 317.4 342.2 c -4.4 -3.3 -9.5 -4 -12.1 -2 c -0.3 0.2 -0.5 0.5 -0.8 0.8 c -1.5 2 -0.9 5.2 1.2 8.2 c 5.1 -0.3 9.9 -1.9 14.2 -4.7 C 319.1 343.6 318.3 342.8 317.4 342.2 Z" />
<path class="st4" d="M 319.9 344.4 c -4.3 2.7 -9.1 4.3 -14.2 4.7 c 1 1.4 2.3 2.7 3.8 3.8 c 4.7 3.5 10.3 4.1 12.6 1.5 l 0.2 -0.3 C 324 351.7 322.9 347.8 319.9 344.4 L 319.9 344.4 Z" />
<path class="st7" d="M 355.3 274.1 c -1.5 -0.5 -3 -1.1 -4.4 -1.6 l -11.9 8.7 l 7.1 2.7 C 349 280.5 352.1 277.2 355.3 274.1 Z" />
<path class="st8" d="M 384.8 298 l 8.5 -9.3 c -4.4 -1.5 -8.7 -3.2 -13 -4.9 c -3.5 3 -7.1 5.9 -10.6 8.9 C 374.7 294.4 379.7 296.2 384.8 298 L 384.8 298 Z" />
<path class="st7" d="M 346.1 283.9 c 7.8 3 15.7 5.9 23.6 8.8 c 3.5 -3 7.1 -5.9 10.6 -8.9 c -8.3 -3.2 -16.6 -6.6 -24.9 -9.7 C 352.1 277.2 349 280.5 346.1 283.9 L 346.1 283.9 Z M 350.9 272.5 c -2.6 -0.9 -5.2 -1.8 -7.9 -2.6 l -11.3 8.6 l 7.2 2.7 L 350.9 272.5 Z" />
<path class="st8" d="M 375.8 253.8 l -0.8 -0.2 l -8.2 -1.8 l -23.8 18 c 2.6 0.8 5.3 1.7 7.9 2.6 C 359.3 266.4 367.6 260.2 375.8 253.8 L 375.8 253.8 Z" />
<path class="st7" d="M 377.4 254.1 l -1.6 -0.4 c -8.2 6.4 -16.5 12.6 -24.9 18.7 c 1.5 0.5 3 1.1 4.4 1.6 C 362.4 267.1 369.9 260.6 377.4 254.1 L 377.4 254.1 Z" />
<path class="st9" d="M 393.3 288.7 l 22.7 -24.9 c -1.6 -0.6 -4.7 -1.4 -8.5 -2.4 c -9.2 7.4 -18.3 14.9 -27.3 22.4 C 384.6 285.5 388.9 287.1 393.3 288.7 L 393.3 288.7 Z" />
<path class="st8" d="M 355.3 274.1 c 8.4 3.1 16.6 6.5 24.9 9.7 c 9 -7.5 18.1 -14.9 27.3 -22.4 c -9.9 -2.6 -24.4 -6 -30.1 -7.3 C 369.9 260.6 362.4 267.1 355.3 274.1 L 355.3 274.1 Z" />
<path class="st7" d="M 377 306.5 l 7.8 -8.5 c -5.1 -1.7 -10.1 -3.5 -15.2 -5.4 l -8 6.7 C 366.8 301.6 371.9 304 377 306.5 Z M 340 291.3 c 7.4 2.2 14.6 4.8 21.6 8 l 8 -6.7 c -7.9 -2.9 -15.7 -5.8 -23.6 -8.8 C 344 286.3 341.9 288.8 340 291.3 Z" />
<path class="st9" d="M 368.3 316.1 l 8.8 -9.6 c -5.1 -2.4 -10.2 -4.9 -15.4 -7.1 l -10 8.4 C 357.2 310.6 362.7 313.4 368.3 316.1 L 368.3 316.1 Z" />
<path class="st7" d="M 346.1 283.9 l -7.1 -2.7 c -5.2 3.9 -10.5 7.7 -15.7 11.7 c 9.5 4.9 18.9 10 28.4 14.9 l 10 -8.4 c -7 -3.2 -14.2 -5.8 -21.6 -8 C 341.9 288.8 344 286.3 346.1 283.9 L 346.1 283.9 Z" />
<path class="st9" d="M 331.7 278.4 L 317 289.6 c 2.1 1.1 4.2 2.2 6.3 3.2 c 5.2 -4 10.4 -7.8 15.7 -11.7 L 331.7 278.4 Z" />
<path class="st7" d="M 308.8 295.9 c -0.9 0.5 -3.2 2.4 -3.2 2.4 l 7.4 2.6 c 3.4 -2.7 6.8 -5.4 10.3 -8 c -2.1 -1.1 -4.2 -2.2 -6.3 -3.2 L 308.8 295.9 Z M 365.5 319.1 l 2.8 -3 c -5.6 -2.7 -11.1 -5.5 -16.6 -8.3 l -5.5 4.6 L 365.5 319.1 Z" />
<path class="st8" d="M 313 300.8 l 33.2 11.5 l 5.5 -4.6 c -9.5 -4.9 -18.9 -10 -28.4 -14.9 C 319.8 295.5 316.4 298.1 313 300.8 L 313 300.8 Z" />
<path class="st10" d="M 305.6 298.2 c 0 2.7 0.6 13.7 0.9 16.8 c 6.6 2.8 53.9 19.5 60.8 22 c -0.8 -6 -1.5 -12 -1.9 -18 L 305.6 298.2 Z" />
<path class="st8" d="M 416.5 281.6 c 0 -5.6 0.3 -11 -0.5 -17.8 l -50.5 55.2 h -0.1 c 0.4 6 1 12 1.9 18 l 0.2 0.1 C 373 331.7 413.8 285.6 416.5 281.6 Z" />
<path class="st11" d="M 370 294.6 l -0.3 -14.9 l -30.6 -0.3 l -4.3 14.8 c 0 0.2 -0.1 0.3 -0.1 0.5 c 0 2.9 7.9 5.3 17.6 5.3 S 370 297.5 370 294.6 L 370 294.6 Z" />
<path class="st12" d="M 369.7 279.6 c 0 2.2 -6.9 4 -15.3 4 s -15.3 -1.8 -15.3 -4 c 0 -0.1 0 -0.2 0 -0.3 c 0.6 -2.1 7.2 -3.7 15.3 -3.7 C 362.8 275.7 369.6 277.5 369.7 279.6 L 369.7 279.6 Z" />
<path class="st5" d="M 377.5 270.3 l 0.1 -6.7 l 12.1 -0.1 l 1.7 6.6 c 0 0.1 0 0.1 0 0.2 c 0 1.3 -3.1 2.4 -7 2.4 S 377.5 271.6 377.5 270.3 L 377.5 270.3 Z" />
<path class="st12" d="M 377.6 263.6 c 0 1 2.7 1.8 6.1 1.8 s 6.1 -0.8 6.1 -1.8 c 0 0 0 -0.1 0 -0.1 c -0.2 -0.9 -2.9 -1.7 -6.1 -1.7 C 380.4 261.8 377.7 262.6 377.6 263.6 L 377.6 263.6 Z" />
<path class="st13" d="M 438.9 292 l -28.5 11.4 l 0.4 8.2 l 35.5 44.2 l 0.8 -0.4 C 448 334.3 445.9 313.1 438.9 292 L 438.9 292 Z" />
<path class="st14" d="M 553 290.3 l -40 -28 L 438.9 292 c 7.1 21.1 9.1 42.3 8.2 63.4 l 102.2 -53.4 L 553 290.3 Z" />
<path class="st15" d="M 556.5 308.3 l -11 -6.2 l -90.5 45 l -2 4.8 l 8.5 14.8 l 61.8 -34.1 l -3.3 -5.8 l 3.6 -1.8 l 2.9 5.8 l 25.5 -14.1 L 556.5 308.3 Z" />
<g>
	<path class="st16" d="M 410.4 303.4 c 0.3 0.4 1.6 1.9 3.5 4.1 c 2.2 -1.1 4.4 -2.2 6.6 -3.4 c -1.4 -1.3 -2.8 -2.7 -4.2 -4 C 414 301.3 412 302.4 410.4 303.4 L 410.4 303.4 Z" />
	<path class="st16" d="M 416.1 300.1 c 1.4 1.3 2.8 2.7 4.2 4 c 1.4 -0.7 2.8 -1.4 4.2 -2.1 c -1.4 -1.4 -2.9 -2.8 -4.3 -4.1 C 418.8 298.7 417.4 299.5 416.1 300.1 Z" />
	<path class="st16" d="M 420.2 298 c 1.5 1.4 2.9 2.7 4.3 4.1 c 4.4 -2.2 8.9 -4.4 13.4 -6.5 c -1.7 -1.3 -3.4 -2.5 -5.1 -3.7 C 428.3 294 424 296.1 420.2 298 Z" />
	<path class="st16" d="M 432.9 291.9 c 1.7 1.2 3.4 2.5 5.1 3.7 c 1.9 -0.9 3.8 -1.8 5.7 -2.7 l -4.4 -4 C 437.1 290 435 291 432.9 291.9 Z" />
	<path class="st16" d="M 439.3 289 c 1.5 1.3 2.9 2.7 4.4 4 c 5.7 -2.7 11.5 -5.3 17.3 -7.8 c -1.2 -1.4 -2.3 -2.7 -3.4 -4.1 C 451.3 283.7 445.2 286.4 439.3 289 L 439.3 289 Z M 457.5 281.1 c 1.1 1.4 2.3 2.7 3.4 4.1 c 0.7 -0.3 1.4 -0.6 2.1 -0.9 c -1.2 -1.3 -2.3 -2.7 -3.5 -4 L 457.5 281.1 Z" />
	<path class="st16" d="M 459.5 280.2 c 1.2 1.4 2.3 2.7 3.5 4 c 6 -2.7 12.1 -5.3 18.2 -7.8 c -1.1 -1.3 -2.2 -2.6 -3.2 -3.9 C 472.1 275 465.8 277.6 459.5 280.2 L 459.5 280.2 Z" />
	<path class="st16" d="M 480.2 271.6 l -2.2 0.9 c 1.1 1.3 2.1 2.6 3.2 3.9 l 2.6 -1.1 C 482.7 274.1 481.5 272.9 480.2 271.6 L 480.2 271.6 Z" />
	<path class="st16" d="M 480.2 271.6 c 1.2 1.2 2.4 2.5 3.6 3.7 c 5 -2.1 10.1 -4.2 15.1 -6.3 l -4.1 -3.4 C 490.4 267.5 485.5 269.5 480.2 271.6 L 480.2 271.6 Z" />
	<path class="st16" d="M 494.9 265.7 l 4.1 3.4 l 2.9 -1.1 l -4.1 -3.4 L 494.9 265.7 Z" />
	<path class="st16" d="M 515.3 257.6 c -0.8 0.4 -7.6 3 -17.5 7 l 4.1 3.4 c 5.7 -2.4 11.5 -4.7 17.2 -7 L 515.3 257.6 Z M 413.8 307.5 l 4.7 5.5 l 7.1 -3.7 c -1.7 -1.7 -3.4 -3.4 -5.2 -5.1 C 418.2 305.3 416 306.4 413.8 307.5 Z" />
	<path class="st16" d="M 420.4 304.2 c 1.8 1.7 3.5 3.4 5.2 5.1 l 4.1 -2.1 c -1.6 -1.7 -3.3 -3.4 -5 -5.1 C 423.2 302.8 421.8 303.5 420.4 304.2 Z" />
</g>
<path class="st17" d="M 424.6 302.1 c 1.7 1.7 3.4 3.4 5 5.1 c 4.7 -2.4 9.3 -4.8 13.9 -7.2 c -1.8 -1.5 -3.7 -2.9 -5.6 -4.3 C 433.5 297.8 429 299.9 424.6 302.1 L 424.6 302.1 Z" />
<path class="st16" d="M 438 295.6 c 1.9 1.4 3.7 2.9 5.6 4.3 l 4.9 -2.5 c -1.6 -1.5 -3.2 -3 -4.8 -4.5 C 441.8 293.9 439.9 294.7 438 295.6 Z" />
<path class="st16" d="M 443.7 293 c 1.6 1.5 3.2 3 4.8 4.5 c 5.3 -2.7 10.7 -5.4 16.1 -8.1 c -1.2 -1.4 -2.4 -2.8 -3.6 -4.2 C 455.2 287.7 449.4 290.3 443.7 293 L 443.7 293 Z M 461 285.2 c 1.2 1.4 2.4 2.8 3.6 4.2 l 2.2 -1 c -1.2 -1.4 -2.5 -2.7 -3.7 -4.1 C 462.4 284.6 461.6 284.9 461 285.2 Z" />
<path class="st18" d="M 463 284.3 c 1.2 1.4 2.5 2.7 3.7 4.1 c 5.8 -2.8 11.7 -5.6 17.5 -8.2 l -3 -3.7 C 475.2 279 469.1 281.6 463 284.3 Z" />
<path class="st16" d="M 483.9 275.4 l 3.3 3.4 c 5.1 -2.3 10.3 -4.5 15.5 -6.7 l -3.7 -3 C 493.9 271.2 488.9 273.3 483.9 275.4 L 483.9 275.4 Z" />
<path class="st17" d="M 519.1 260.9 c -5.8 2.3 -11.5 4.6 -17.2 7 l 3.7 3 c 5.7 -2.3 11.5 -4.6 17.3 -6.7 L 519.1 260.9 Z" />
<path class="st16" d="M 499 269.1 l 3.7 3 l 2.8 -1.1 l -3.7 -3 L 499 269.1 Z M 483.9 275.4 l -2.6 1.1 l 3 3.7 l 2.9 -1.3 L 483.9 275.4 Z M 418.5 313 c 2 2.4 4.3 5 6.7 7.8 l 8 -3.7 c -2.5 -2.7 -5 -5.3 -7.6 -7.9 L 418.5 313 Z" />
<path class="st16" d="M 425.5 309.3 c 2.6 2.6 5.1 5.2 7.6 7.9 l 4 -1.8 c -2.5 -2.8 -5 -5.5 -7.6 -8.1 L 425.5 309.3 Z M 443.6 300 c 3.3 2.6 6.5 5.3 9.6 8.1 l 4.1 -1.9 c -2.9 -2.9 -5.9 -5.8 -8.8 -8.7 L 443.6 300 Z" />
<path class="st17" d="M 448.5 297.5 c 3 2.9 5.9 5.8 8.8 8.7 l 15.5 -7.1 c -2.7 -3.2 -5.5 -6.4 -8.2 -9.6 C 459.2 292.1 453.8 294.7 448.5 297.5 Z" />
<path class="st5" d="M 464.6 289.4 c 2.7 3.2 5.5 6.4 8.2 9.6 l 2.8 -1.3 c -3 -3.1 -5.9 -6.2 -8.8 -9.4 L 464.6 289.4 Z" />
<path class="st16" d="M 466.8 288.4 c 2.9 3.2 5.9 6.3 8.8 9.4 l 16.9 -7.8 c -2.7 -3.3 -5.5 -6.6 -8.3 -9.9 C 478.4 282.8 472.5 285.5 466.8 288.4 Z" />
<path class="st19" d="M 484.3 280.1 c 2.8 3.3 5.5 6.6 8.3 9.9 l 3.6 -1.6 c -2.9 -3.2 -5.9 -6.4 -9 -9.6 L 484.3 280.1 Z" />
<path class="st17" d="M 487.2 278.8 c 3 3.2 6 6.4 9 9.6 l 17 -7.8 c -3.5 -2.9 -6.9 -5.7 -10.4 -8.5 C 497.5 274.3 492.3 276.5 487.2 278.8 L 487.2 278.8 Z" />
<path class="st16" d="M 502.7 272.1 c 3.5 2.8 7 5.7 10.4 8.5 l 2.6 -1.2 c -3.4 -2.9 -6.8 -5.7 -10.2 -8.5 L 502.7 272.1 Z" />
<path class="st18" d="M 522.8 264.2 c -5.8 2.1 -11.6 4.4 -17.3 6.7 c 3.4 2.8 6.8 5.6 10.2 8.5 l 16 -7.3 L 522.8 264.2 Z" />
<path class="st16" d="M 429.6 307.2 c 2.6 2.7 5.1 5.4 7.6 8.1 l 16 -7.3 c -3.2 -2.7 -6.4 -5.4 -9.6 -8.1 C 438.9 302.4 434.3 304.8 429.6 307.2 Z" />
<path class="st17" d="M 425.1 320.8 c 2.9 3.4 5.9 6.9 8.7 10.2 l 8 -4.6 c -2.9 -3.1 -5.8 -6.2 -8.7 -9.3 L 425.1 320.8 Z" />
<path class="st16" d="M 433.2 317.2 c 2.9 3.1 5.8 6.2 8.7 9.3 l 3.4 -1.9 c -2.6 -3.1 -5.3 -6.2 -8 -9.2 L 433.2 317.2 Z" />
<path class="st18" d="M 437.2 315.3 c 2.7 3 5.4 6.1 8 9.2 c 5.4 -3.1 10.8 -6.2 16.1 -9.3 c -2.7 -2.4 -5.4 -4.8 -8.1 -7.2 L 437.2 315.3 Z" />
<path class="st16" d="M 453.2 308 c 2.7 2.4 5.4 4.8 8.1 7.2 l 3.1 -1.8 c -2.4 -2.4 -4.8 -4.9 -7.2 -7.3 L 453.2 308 Z" />
<path class="st5" d="M 472.8 299.1 c 1.8 2.2 3.6 4.3 5.5 6.5 l 3.2 -1.8 c -2 -2 -4 -4 -5.9 -6 L 472.8 299.1 Z" />
<path class="st18" d="M 475.6 297.8 c 2 2 3.9 4 5.9 6 c 5.1 -2.9 10.2 -5.7 15.4 -8.5 c -1.4 -1.8 -2.9 -3.5 -4.4 -5.3 L 475.6 297.8 Z" />
<path class="st20" d="M 492.5 290 c 1.5 1.8 2.9 3.5 4.4 5.3 c 1.2 -0.7 2.5 -1.3 3.8 -2 c -1.5 -1.6 -3 -3.3 -4.5 -4.9 L 492.5 290 Z" />
<path class="st18" d="M 496.1 288.4 c 1.5 1.6 3 3.3 4.5 4.9 c 5.7 -3 11.4 -5.9 17.1 -8.8 c -1.5 -1.3 -3.1 -2.6 -4.6 -3.9 L 496.1 288.4 Z" />
<path class="st16" d="M 513.1 280.6 c 1.6 1.3 3.1 2.6 4.6 3.9 c 0.8 -0.4 1.7 -0.8 2.5 -1.2 c -1.5 -1.3 -3 -2.6 -4.5 -3.9 L 513.1 280.6 Z" />
<path class="st16" d="M 531.8 272.1 l -16 7.3 c 1.5 1.3 3 2.6 4.5 3.9 c 5.2 -2.5 10.5 -5 15.8 -7.4 L 531.8 272.1 Z" />
<path class="st19" d="M 457.3 306.2 c 2.4 2.4 4.8 4.8 7.2 7.3 c 4.6 -2.7 9.2 -5.3 13.8 -7.9 c -1.8 -2.2 -3.6 -4.4 -5.5 -6.5 L 457.3 306.2 Z" />
<path class="st5" d="M 441.9 326.5 l 3.5 3.8 l 3.3 -1.6 c -1.2 -1.4 -2.3 -2.8 -3.5 -4.1 L 441.9 326.5 Z" />
<path class="st16" d="M 445.2 324.5 c 1.2 1.4 2.3 2.7 3.5 4.1 c 6 -2.9 12 -5.8 18.1 -8.5 c -1.8 -1.7 -3.6 -3.3 -5.4 -4.9 C 456 318.3 450.6 321.4 445.2 324.5 L 445.2 324.5 Z M 464.5 313.4 l 5.3 5.4 c 4.7 -2.1 9.4 -4.2 14.1 -6.2 c -1.8 -2.4 -3.7 -4.7 -5.6 -7 C 473.7 308.2 469.1 310.8 464.5 313.4 Z" />
<path class="st5" d="M 478.3 305.6 c 1.9 2.3 3.8 4.7 5.6 7 l 4.6 -2 c -2.3 -2.3 -4.6 -4.6 -6.9 -6.9 L 478.3 305.6 Z" />
<path class="st16" d="M 481.5 303.8 c 2.3 2.3 4.6 4.6 6.9 6.9 c 5.1 -2.2 10.3 -4.4 15.4 -6.6 c -2.3 -3 -4.6 -5.9 -6.9 -8.8 C 491.7 298.1 486.6 300.9 481.5 303.8 Z" />
<path class="st19" d="M 496.9 295.3 c 2.3 2.9 4.7 5.8 6.9 8.8 l 4.7 -2 c -2.6 -2.9 -5.2 -5.8 -7.9 -8.7 C 499.4 294 498.1 294.7 496.9 295.3 L 496.9 295.3 Z" />
<path class="st16" d="M 500.6 293.3 c 2.6 2.9 5.3 5.8 7.9 8.7 c 6.5 -2.8 13 -5.6 19.5 -8.4 c -3.3 -3.1 -6.8 -6.1 -10.3 -9.1 C 512 287.4 506.3 290.3 500.6 293.3 Z" />
<path class="st16" d="M 517.8 284.5 c 3.5 3 6.9 6 10.3 9.1 l 2.5 -1.1 c -3.4 -3.2 -6.8 -6.2 -10.3 -9.2 C 519.5 283.7 518.6 284.1 517.8 284.5 L 517.8 284.5 Z" />
<path class="st5" d="M 540.9 280.1 l -4.8 -4.2 c -5.3 2.4 -10.6 4.8 -15.8 7.4 c 3.5 3 6.9 6.1 10.3 9.2 c 5.5 -2.4 10.9 -4.8 16.3 -7.3 L 540.9 280.1 Z" />
<path class="st16" d="M 461.3 315.2 c 1.8 1.6 3.6 3.3 5.4 4.9 l 3 -1.3 l -5.3 -5.4 L 461.3 315.2 Z M 433.9 331 l 3 3.5 c 2.8 -1.5 5.6 -2.9 8.5 -4.3 l -3.5 -3.8 L 433.9 331 Z" />
<path class="st17" d="M 436.9 334.6 c 5 5.8 9.1 10.5 10.8 12.4 l 8.6 -4.6 c -3.6 -4 -7.3 -8 -11 -12.1 C 442.5 331.7 439.7 333.1 436.9 334.6 Z" />
<path class="st19" d="M 445.4 330.3 c 3.7 4 7.3 8 11 12.1 l 2.5 -1.4 c -3.4 -4.1 -6.8 -8.2 -10.2 -12.3 L 445.4 330.3 Z" />
<path class="st18" d="M 448.7 328.7 c 3.4 4.1 6.8 8.2 10.2 12.3 l 19.5 -10.4 c -3.9 -3.4 -7.7 -6.9 -11.5 -10.4 C 460.7 322.9 454.7 325.7 448.7 328.7 L 448.7 328.7 Z" />
<path class="st16" d="M 469.8 318.8 l -3 1.3 c 3.8 3.5 7.7 7 11.5 10.4 l 2.1 -1.1 C 476.9 325.9 473.3 322.4 469.8 318.8 Z" />
<path class="st17" d="M 469.8 318.8 c 3.5 3.6 7.1 7.1 10.6 10.6 l 11.2 -6 c -2.5 -3.7 -5.1 -7.3 -7.8 -10.8 C 479.2 314.7 474.5 316.7 469.8 318.8 L 469.8 318.8 Z" />
<path class="st16" d="M 483.9 312.6 c 2.7 3.5 5.3 7.1 7.8 10.8 l 6.4 -3.5 c -3.2 -3.1 -6.5 -6.2 -9.7 -9.3 L 483.9 312.6 Z" />
<path class="st16" d="M 488.4 310.7 c 3.2 3.1 6.4 6.2 9.7 9.3 l 12.5 -6.7 c -2.2 -3.1 -4.5 -6.1 -6.8 -9.1 C 498.7 306.3 493.6 308.5 488.4 310.7 L 488.4 310.7 Z M 530.6 292.5 l -2.5 1.1 c 2.3 2.1 4.6 4.3 6.8 6.5 l 2.3 -1.3 C 535 296.8 532.8 294.6 530.6 292.5 Z" />
<path class="st16" d="M 546.9 285.2 c -5.4 2.5 -10.9 4.9 -16.3 7.3 c 2.2 2.1 4.4 4.2 6.6 6.4 l 15.8 -8.6 L 546.9 285.2 Z" />
<path class="st17" d="M 508.5 302.1 c 2.5 2.8 4.9 5.5 7.4 8.3 l 12.7 -6.8 l 6.2 -3.4 c -2.2 -2.2 -4.4 -4.4 -6.8 -6.5 C 521.6 296.5 515.1 299.3 508.5 302.1 L 508.5 302.1 Z" />
<path class="st16" d="M 503.8 304.1 c 2.3 3 4.6 6 6.8 9.1 l 5.3 -2.9 c -2.5 -2.8 -5 -5.6 -7.4 -8.3 L 503.8 304.1 Z" />
<path class="st10" d="M 455 347.1 l 7.8 11.8 l 5.4 -2.8 c -2.7 -3.8 -5.3 -7.7 -7.8 -11.8 L 455 347.1 Z M 466.4 341.1 c 2.2 4.1 4.3 8.3 6.7 12.5 l 11.3 -5.7 c -2.5 -4.1 -4.7 -8.3 -7.1 -12.4 L 466.4 341.1 Z" />
<path class="st6" d="M 509.6 318.5 l -1.9 1 c 2.4 4.3 4.6 8.7 6.8 13 l 2.1 -1.1 C 514.1 327.2 511.6 322.9 509.6 318.5 Z" />
<path class="st10" d="M 523.9 311 l -14.3 7.5 c 2 4.4 4.5 8.6 7 13 l 4.7 -2.4 l -3.8 -3.5 l 5.2 -3.5 l 4 4 l 5.8 -3.5 C 529.7 318.8 526.8 314.9 523.9 311 L 523.9 311 Z" />
<path class="st6" d="M 525.4 310.2 l -1.5 0.8 c 2.8 3.9 5.7 7.8 8.7 11.6 l 2.1 -1.2 C 531.9 317.4 528.8 313.7 525.4 310.2 L 525.4 310.2 Z" />
<path class="st10" d="M 537 304.2 l -11.6 6.1 c 3.4 3.4 6.6 7.1 9.3 11.1 l 11.2 -6.7 C 543.1 311.1 540.1 307.5 537 304.2 L 537 304.2 Z" />
<path class="st6" d="M 538.5 303.4 l -1.5 0.8 c 3.2 3.4 6.1 6.9 9 10.5 l 3 -1.8 C 545.6 309.6 542.1 306.4 538.5 303.4 L 538.5 303.4 Z" />
<path class="st10" d="M 545.8 299.6 l -7.3 3.8 c 3.6 3 7.1 6.2 10.5 9.4 l 7.5 -4.5 L 545.8 299.6 Z" />
<path class="st6" d="M 494.8 326.3 l -2.8 1.5 c 2.9 3.9 5.8 7.9 8.7 11.8 l 2.3 -1.2 C 500.1 334.5 497.3 330.5 494.8 326.3 Z" />
<path class="st10" d="M 507.7 319.5 l -13 6.8 c 2.5 4.2 5.3 8.2 8.2 12.1 l 11.5 -5.9 C 512.3 328.2 510.1 323.8 507.7 319.5 Z M 492 327.7 l -12.8 6.7 c 2.2 4.2 4.5 8.4 7 12.5 l 14.5 -7.4 C 497.7 335.6 494.8 331.6 492 327.7 Z" />
<path class="st6" d="M 477.3 335.4 c 2.4 4.1 4.6 8.3 7.1 12.4 l 1.9 -1 c -2.5 -4.1 -4.9 -8.3 -7 -12.5 L 477.3 335.4 Z M 463.9 342.4 c 2.4 4 4.9 8.1 7.3 12.1 l 1.8 -0.9 c -2.4 -4.1 -4.5 -8.4 -6.7 -12.5 L 463.9 342.4 Z" />
<path class="st6" d="M 463.9 342.4 l -3.6 1.9 c 2.5 4 5.1 8 7.8 11.8 l 3 -1.5 C 468.8 350.5 466.3 346.5 463.9 342.4 L 463.9 342.4 Z" />
<path class="st21" d="M 404.8 343.3 l 24.2 -12.8" />
<path class="st22" d="M 427.1 335.4 l -0.8 0.5 c -1.4 0.8 -1.9 2.6 -1.1 4.1 c 0.5 0.9 1.5 1.5 2.6 1.5 c 0.5 0 1 -0.1 1.5 -0.4 l 1.6 -0.9 C 430.5 337.9 429.6 335.9 427.1 335.4 Z" />
<path class="st17" d="M 435.1 334.4 c -0.8 -1.4 -2.7 -1.9 -4.1 -1.1 l -2 1.2 c 3.3 0.4 3.5 2.7 3.3 5 l 1.7 -1 C 435.4 337.6 435.9 335.8 435.1 334.4 Z" />
<path class="st10" d="M 429 334.4 l -1.9 1 c 2.5 0.5 3.4 2.5 3.7 4.8 l 1.4 -0.8 C 432.5 337.1 432.3 334.8 429 334.4 L 429 334.4 Z" />
<path class="st23" d="M 448.8 351.8 l 14.8 23" />
<path class="st24" d="M 471.6 358.3 l 9.9 11.6" />
<path class="st2" d="M 325.6 179.8 c -0.1 -1.5 -0.6 -5 -0.6 -6 c 9.6 -2.7 13.6 1.4 15.3 3.5 c 4 -1.2 20.4 -5.5 24 -7 c 2.1 -10.1 13.4 -8.5 15.6 -4.9 c 2.5 -0.7 5.4 -1.6 6.9 -1.9 c 0.7 2.3 1.3 4.6 1.6 7 c -1.8 0.5 -4.8 1.2 -5.9 1.5 c -0.2 5.8 -9.3 11.4 -16.6 5 c -2.5 0.8 -20.2 5.5 -23 6.3 c 0.8 5.6 -5.2 12.1 -9.4 13.7 c -1 -1.2 -2.8 -3.9 -3.9 -5.1 C 336.9 188.7 339.9 178 325.6 179.8 L 325.6 179.8 Z M 373.9 167.2 c -2 0 -3.7 1.6 -3.7 3.6 c 0 2 1.6 3.7 3.6 3.7 c 2 0 3.7 -1.6 3.7 -3.6 c 0 0 0 0 0 0 C 377.5 168.8 375.9 167.2 373.9 167.2 C 373.9 167.2 373.9 167.2 373.9 167.2 Z" />
<path class="st0" d="M 325.3 177.5 c -0.1 -1.5 -0.6 -5 -0.6 -6 c 9.6 -2.7 13.6 1.4 15.3 3.5 c 4 -1.2 20.4 -5.5 24 -7 c 2.1 -10.1 13.4 -8.5 15.6 -4.9 c 2.5 -0.6 5.4 -1.6 6.9 -1.9 c 0.8 2.3 1.3 4.7 1.6 7.1 c -1.8 0.5 -4.8 1.2 -5.9 1.5 c -0.2 5.8 -9.3 11.4 -16.6 5 c -2.5 0.8 -20.2 5.5 -23 6.3 c 0.8 5.6 -5.2 12.1 -9.4 13.7 c -1 -1.2 -2.8 -3.9 -3.9 -5.1 C 336.6 186.4 339.5 175.7 325.3 177.5 L 325.3 177.5 Z M 373.5 164.8 c -2 0 -3.7 1.6 -3.7 3.6 s 1.6 3.7 3.6 3.7 s 3.7 -1.6 3.7 -3.6 c 0 0 0 0 0 0 C 377.1 166.5 375.5 164.8 373.5 164.8 Z" />
<path class="st25" d="M 873.7 116.3 l -41.9 47" />
<path class="st26" d="M 854.7 124.3 l -23.2 26.5" />
<path class="st27" d="M 644.8 52.7 c 0 0 7.7 -1 10 5.1 s 2 10.2 -4.3 13.7 l -2.5 -0.6 c 0 0 6.7 -3.6 4.8 -9.5 S 648.1 54 644.8 52.7 Z M 717.1 264.2 c 1.1 2.3 3.2 4 6.2 5.2 c 8.5 3.4 24.1 2.2 68.9 -14.3 l -24.5 -39.5 C 722.1 241.1 713.2 255.8 717.1 264.2 Z" />
<path class="st28" d="M 734.5 262.9 c -2.8 0.1 -5.6 -0.5 -8.3 -1.6 c -2 -0.9 -3.2 -2 -3.6 -3.3 c -0.8 -2.4 -1.5 -15.1 50.4 -42.5 l 18.6 33 C 764.4 258.4 745.8 263.1 734.5 262.9 L 734.5 262.9 Z M 757.6 287.1 l 36.1 62.5 c 5.1 8.8 30.6 3.5 57.1 -11.8 c 1.8 -1.1 3.6 -2.1 5.3 -3.2 c -12.9 -26.4 -24.7 -53.4 -37.6 -79.9 L 757.6 287.1 Z M 889.6 294.3 l -34.1 -59.1 l -23.1 12.2 c 13.4 24.9 27.2 49.7 42.3 73.5 C 886.7 310.3 892.9 300 889.6 294.3 L 889.6 294.3 Z" />
<path class="st27" d="M 832.4 247.5 l -13.8 7.3 c 12.9 26.5 24.7 53.5 37.6 79.9 c 6.5 -4.1 12.7 -8.7 18.5 -13.7 C 859.6 297.1 845.8 272.4 832.4 247.5 L 832.4 247.5 Z" />
<path class="st27" d="M 863.4 217.7 l 12.3 23.4 c 0 0 -9.7 23.1 -62.3 42.6 c -49.1 18.2 -73.7 20 -73.7 20 l 4.7 -20 L 863.4 217.7 Z" />
<path class="st0" d="M 830.3 130.3 l -56.2 27.3 c 11.9 9.6 23.4 19.4 35.9 29.7 c 12 10 26 16 39 26 c 9 6.7 16.8 14.7 24.6 22.5 c 2.3 -2.8 4.3 -5.7 6.1 -8.8 L 830.3 130.3 Z" />
<path class="st28" d="M 849 213.3 c -13 -10 -27 -16 -39 -26 c -12.5 -10.3 -23.9 -20.1 -35.9 -29.7 l -27.6 13.4 c 2.5 3.1 5.3 5.9 8.5 8.2 c 11 8 25 13 31 25 c 13.4 25.5 35.3 42.9 60.3 54.4 c 10.6 -6.8 20.3 -14.4 27.3 -22.9 C 865.8 228 858 220.1 849 213.3 L 849 213.3 Z" />
<path class="st0" d="M 716.6 262 l -0.3 -1 C 716.4 261.3 716.5 261.7 716.6 262 Z" />
<path class="st27" d="M 705.4 191.1 c 3.3 7.1 6.8 14 9.6 21.3 c 2.5 6.8 4.8 13.7 7.1 20.6 c 3.8 -0.8 7.8 -1.9 12.1 -3.2 c -6.7 -14.3 -12.9 -28.8 -18.7 -43.5 L 705.4 191.1 Z" />
<path class="st29" d="M 753.6 208.3 l -17.2 9.2 l 15.8 34.4 H 773 L 753.6 208.3 Z" />
<path class="st30" d="M 748.5 229.2 l 0.5 3.4 c 0 0 3.2 1.9 4.9 1.2 s -1.6 -4.4 -1.6 -4.4 C 750.8 228.2 749.8 228.1 748.5 229.2 Z" />
<path class="st2" d="M 765.9 201.6 l -12.3 6.6 l 19.4 43.7 l 15.3 -15.3 L 765.9 201.6 Z M 757.9 234.1 l -1.4 -2.8 h -2.4 c 0 -0.1 -0.1 -0.2 -0.1 -0.3 c -1.2 -2.6 -3.4 -4.1 -4.8 -3.5 c -1 0.5 -1.4 2 -1.1 3.7 h -3 l 1.4 2.8 h 2.7 c 1.3 2.2 3.2 3.4 4.5 2.8 c 0.8 -0.4 1.2 -1.5 1.2 -2.8 H 757.9 Z M 752.5 235 c -0.8 0.4 -2.1 -0.6 -2.9 -2.1 s -0.8 -3.2 0.1 -3.6 s 2.1 0.6 2.9 2.1 S 753.3 234.6 752.5 235 L 752.5 235 Z" />
<path class="st27" d="M 734.6 268.5 c 3.6 9.3 7.9 18.3 12.8 27 c 6.9 -0.4 13.7 -1.4 20.4 -3 c -5.3 -8.7 -10.3 -17.5 -15.2 -26.4 C 746.7 267.4 740.7 268.2 734.6 268.5 Z" />
<path class="st0" d="M 846.3 258.8 c -25 -11.6 -46.9 -28.9 -60.3 -54.4 c -6 -12 -20 -17 -31 -25 c -3.2 -2.3 -6.1 -5.1 -8.5 -8.2 l -31 15.1 c 5.8 14.7 12 29.2 18.7 43.5 c 11.6 -3.7 22.8 -8.4 33.5 -14 l 24.5 39.5 c -12.9 4.5 -26.2 8.2 -39.6 11.1 c 4.8 8.9 9.9 17.7 15.2 26.4 c 2.7 -0.6 5.6 -1.4 8.6 -2.2 C 776.3 290.3 815.2 278.6 846.3 258.8 L 846.3 258.8 Z M 725 292.3 c 2.1 1 4.3 1.8 6.6 2.2 c -4 -10.2 -8.7 -20.2 -14.2 -29.7 L 725 292.3 Z" />
<path class="st31" d="M 716.6 262 l 0.8 2.8 c 5.5 9.5 10.2 19.5 14.2 29.7 c 1.7 0.4 3.4 0.6 5.2 0.8 c -3.8 -9.2 -7.6 -18.4 -11.9 -27.4 C 720.7 267 717.7 265.1 716.6 262 L 716.6 262 Z" />
<path class="st0" d="M 747.4 295.6 c -4.9 -8.7 -9.2 -17.7 -12.8 -27 c -3.3 0.2 -6.5 -0.1 -9.8 -0.7 c 4.3 9 8.1 18.2 11.9 27.4 C 740.3 295.7 743.8 295.7 747.4 295.6 L 747.4 295.6 Z M 690.2 198.5 l -3.9 1.9 V 235 c 3.4 0.7 6.8 1 10.2 0.9 c -1.5 -2.7 -2.7 -5.6 -3.5 -8.6 C 692.5 217.2 691.9 207.7 690.2 198.5 Z M 704.8 235.6 c 5.8 -0.5 11.6 -1.4 17.3 -2.7 c -2.3 -6.9 -4.6 -13.8 -7.1 -20.6 c -2.8 -7.3 -6.3 -14.2 -9.6 -21.3 l -10.6 5.2 c 0.5 13.7 0.2 27.6 7.2 36.1 C 703 233.4 703.9 234.5 704.8 235.6 Z" />
<path class="st31" d="M 702 232.3 c -7 -8.5 -6.8 -22.4 -7.2 -36.1 l -4.6 2.2 c 1.7 9.3 2.3 18.8 2.8 28.9 c 0.8 3 2 5.9 3.5 8.6 c 2.4 0 5.1 0 8.2 -0.3 C 703.9 234.5 703 233.4 702 232.3 Z" />
<path class="st28" d="M 819 68.3 c -2.1 -6.7 -4.8 -13.3 -7.9 -19.7 c -9.8 1.6 -19.5 4 -29 7.1 c 1.8 5.8 2.3 11.9 -0.1 18.5 c -2 6 -9 9 -11 14 c -13.8 36.9 -35.9 70.1 -64.4 97.3 c 19.6 -7 38.5 -15.9 56.5 -26.3 c 16.1 -9.3 31.5 -19.8 46 -31.5 C 819.5 109.6 825.3 89.8 819 68.3 Z" />
<path class="st32" d="M 852.6 57.6 c -5.4 -9.4 -20.7 -12.1 -41.5 -8.9 c 3.1 6.4 5.7 12.9 7.9 19.7 c 6.3 21.5 0.5 41.3 -9.9 59.4 c 24.2 -19.7 40.4 -39.5 44.5 -54.6 C 855.3 67.1 855.1 61.8 852.6 57.6 Z" />
<path class="st31" d="M 782 74.3 c 2.5 -6.7 2 -12.7 0.1 -18.5 C 763 62 741.5 71.6 719.8 84.1 c -30.2 17.4 -55.2 37.2 -71.4 55.4 c 1.7 2.7 3.9 5.1 6.6 6.9 c 23.5 14.8 50.9 12.9 77.4 10.9 c 16.3 -20.9 29.3 -44.1 38.6 -68.9 C 773 83.3 780 80.3 782 74.3 Z" />
<path class="st32" d="M 655 146.3 c -2.7 -1.8 -4.9 -4.1 -6.6 -6.9 c -16.8 18.8 -24.2 35.8 -18.1 46.3 c 2.1 3.7 5.8 6.4 10.7 8 c 13.8 4.8 37.7 1.6 65.7 -8.2 c 9.3 -8.8 17.9 -18.3 25.7 -28.4 C 705.9 159.2 678.6 161.1 655 146.3 Z" />
<path class="st27" d="M 828 131.7 l -24.7 -36.3 l -130.5 50.9 l 9.5 54.4 C 749.7 188.6 786.5 173.1 828 131.7 Z" />
<path class="st0" d="M 701 135.3 c 16.4 -14.3 32.5 -28.2 49.4 -41.2 c -6.8 1.9 -13.5 4.1 -20.1 6.7 c -34.7 13.5 -59.6 33.4 -57.5 45.5 c 0.1 0.5 0.2 1 0.4 1.5 c 1.5 3.9 6.2 6.4 13 7.4 c 6 -4.2 11.9 -8.8 16.8 -14.9 C 705 138.3 700 137.3 701 135.3 L 701 135.3 Z" />
<path class="st32" d="M 787.2 89.2 c -9.7 -0.6 -22.5 1 -36.8 4.9 c -16.9 13 -33 27 -49.4 41.2 c -1 2 4 3 2 5 c -4.9 6.1 -10.7 10.7 -16.8 14.9 c 13.8 2.1 36.7 -1.8 60.9 -11.2 c 2.7 -1 5.3 -2.1 7.8 -3.2 c 0.1 -0.5 0.1 -1 0.1 -1.5 C 754.2 118 771.5 102.9 787.2 89.2 Z" />
<path class="st0" d="M 804.2 97 c -0.2 -0.6 -0.5 -1.1 -0.8 -1.6 c -2.5 -3.7 -8.2 -5.7 -16.1 -6.2 c -15.7 13.8 -33 28.9 -32.2 50.2 c 0 0.5 0 1 -0.1 1.5 C 786.9 127 808.5 108.1 804.2 97 L 804.2 97 Z" />
<path class="st28" d="M 728 129.3 L 679.3 28.8 l 3 -1.5 l 60.8 96 C 744.4 125.9 729.1 131.5 728 129.3 Z M 787 181.3 c -3.3 -12.7 -2.7 -24.9 -0.4 -36.8 c -7.4 5 -15.2 10 -23.5 14.7 c -50.5 29.1 -99.6 42.3 -122.2 34.6 l 48.1 16.5 c 41.9 -1.6 72.6 -7.5 97.3 -21.9 C 787.3 186.2 787.6 183.7 787 181.3 L 787 181.3 Z" />
<path class="st0" d="M 825.6 113.2 c -12.1 11.5 -25.1 22 -39 31.3 c -2.3 11.9 -2.9 24.1 0.4 36.8 c 0.6 2.4 0.3 4.9 -0.7 7.1 c 5.6 -3.3 10.9 -7 15.9 -11.1 c 2.8 -9.4 4.8 -18.9 8.8 -26.9 C 816.8 138.4 821.7 125.9 825.6 113.2 L 825.6 113.2 Z" />
<path class="st28" d="M 825.6 113.2 c -3.9 12.7 -8.7 25.2 -14.6 37.1 c -4 8 -6 17.6 -8.8 26.9 c 12.6 -10.4 23.6 -23.8 34.1 -40.9 l 17.3 -63.2 C 850.6 84.5 840.6 98.6 825.6 113.2 L 825.6 113.2 Z M 727 111.3 l -51 13 c 0 0 -4.5 2.5 -7.5 -5 s -20.5 -47 -20.5 -47 l 3.4 -2.1 l 23.1 47.1 l 48 -13.5 L 727 111.3 Z" />
<path class="st27" d="M 731 129.3 L 681 28.1 l 3 -1.5 l 62 96.8 C 747.4 125.9 732.1 131.5 731 129.3 Z" />
<path class="st27" d="M 728.5 108.8 l -51 13 c 0 0 -4.5 2.5 -7.5 -5 s -20.5 -47 -20.5 -47 l 3.2 -2.5 l 23.2 47.5 l 48 -13.5 L 728.5 108.8 Z" />
<path class="st32" d="M 655.5 57.3 c -2.7 -5.1 -9 -7 -14.1 -4.3 c -5.1 2.7 -7 9 -4.3 14.1 c 2.7 5 8.9 7 13.9 4.4 C 656.2 68.8 658.2 62.5 655.5 57.3 Z M 652.8 69.2 c -3 1.5 -7.2 -0.7 -9.4 -5 s -1.5 -9 1.5 -10.5 s 7.2 0.7 9.4 5 S 655.8 67.7 652.8 69.2 L 652.8 69.2 Z" />
<path class="st5" d="M 848 208.3 c 8 0.5 16 0.8 24.1 0.5 l -2.8 -46.5 l -26.3 2.2 c -0.3 0 -0.5 0.1 -0.8 0.1 c -9.2 1.7 -13.6 19.7 -9.8 40.2 c 0.2 1.2 0.5 2.4 0.8 3.5 C 838.5 208.7 844.1 207.7 848 208.3 Z M 844 225.3 c -1.6 0 -3.6 -0.9 -5.6 -1.7 c 4.9 10.1 11.6 16.4 17.6 15.2 c 0.6 -0.1 1.1 -0.3 1.6 -0.5 l 15.8 -6.7 l -0.2 -4.1 C 863.6 225.4 853.8 224.6 844 225.3 Z" />
<path class="st6" d="M 873.2 227.6 l -1.1 -18.7 c -8 0.2 -16 0 -24.1 -0.5 c -3.9 -0.6 -9.5 0.4 -14.9 0.1 c 1.2 5.3 2.9 10.4 5.3 15.2 c 2.1 0.8 4 1.7 5.6 1.7 C 853.8 224.6 863.7 225.4 873.2 227.6 Z" />
<path class="st28" d="M 887 197.3 c 0 16.9 -5.8 31 -13.5 34.3 c -1.1 0.5 -2.3 0.7 -3.5 0.7 c -9.4 0 -17 -15.7 -17 -35 c 0 -18.8 7.2 -34.2 16.3 -35 h 0.7 C 879.4 162.3 887 178 887 197.3 L 887 197.3 Z" />
<path class="st6" d="M 832.3 202.3 c 0 0 -34.4 25.9 -36.2 28.2 s -5.2 5.8 0.2 7.8 c 5.8 2.3 15.2 -2.5 21 -8.5 s 23.7 -27.2 23.7 -27.2 L 832.3 202.3 Z" />
<path class="st5" d="M 803 226.8 c 16.5 -3.5 38 -24.2 38 -24.2 l 7 21.5 c 0 0 -17.2 18 -37.5 25 C 790.2 256.1 786.5 230.3 803 226.8 Z" />
<path class="st6" d="M 870 171.6 c -0.2 0 -0.3 0 -0.5 0 c -2.2 0.3 -4.1 1.4 -5.5 3.1 c 0.7 0.8 1.4 1.7 2 2.6 c 5 9 7 18 4 28 c -1.1 4 -2.9 10.2 -6.1 14.5 c 1.8 2.1 3.9 3.3 6.1 3.3 c 0.9 0 1.7 -0.2 2.5 -0.5 c 5.7 -2.4 10 -12.8 10 -25.2 C 882.5 183.1 876.9 171.6 870 171.6 L 870 171.6 Z" />
<path class="st27" d="M 866 177.3 c -0.6 -0.9 -1.3 -1.8 -2 -2.6 c -3.9 4.4 -6.5 12.9 -6.5 22.6 s 2.6 18.1 6.4 22.5 c 3.2 -4.3 5 -10.5 6.1 -14.5 C 873 195.3 871 186.3 866 177.3 Z M 676.8 2.8 c 9.2 3.5 14 20.5 -2 26.2 c 0 0.7 12.8 4 16.3 -10 C 694.3 6.3 677.7 -1.9 676.8 2.8 Z" />
<path class="st32" d="M 676.9 0 c -8.5 0.1 -15.4 7 -15.4 15.6 c 0 0 0 0 0 0 c 0 1.3 0.2 2.6 0.5 3.9 c 3.7 0.5 7.2 1.5 10.6 3 c -0.7 -1.9 -1 -3.9 -1 -5.9 c 0 -7.1 4 -12.8 9 -12.8 s 9 5.7 9 12.8 s -4 12.8 -9 12.8 c -2.3 -0.1 -4.4 -1.2 -5.8 -3 c -2.4 1.4 -5.5 1.1 -8.5 0.6 c 2.8 2.7 6.6 4.3 10.5 4.2 c 8.5 -0.1 15.4 -7 15.4 -15.6 c 0 0 0 0 0 0 C 692.4 7.1 685.5 0.1 676.9 0 C 677 0 677 0 676.9 0 Z" />
<path class="st0" d="M 674.9 26.3 c -1 -1.2 -1.7 -2.5 -2.2 -3.9 c -3.4 -1.5 -7 -2.5 -10.6 -3 c 0.7 2.9 2.2 5.4 4.3 7.5 C 669.4 27.4 672.5 27.7 674.9 26.3 Z" />
<path class="st33" d="M 528.8 185.1 c -0.1 -0.6 -0.1 -1.1 -0.1 -1.7 c 0 -12.8 16.7 -7.8 22.3 -23.7" />
<path class="st34" d="M 508 151.3 c 7.4 -3.3 14.4 -3.4 20.9 -8.5" />
<path class="st35" d="M 524 173.1 c 2.9 -1.8 5.6 -3 8.7 -3 c 5.8 0 8.3 4 12.2 4 c 4.8 0 4.5 -11.2 8.4 -15.2" />
<path class="st36" d="M 545 142.5 c -3.8 -3 -8.1 -4 -9.9 -2.5 l -15 13.3 l 14.1 12.1 l 15 -13.3 c 0.1 -0.1 0.2 -0.2 0.3 -0.3 C 551 149.9 549 145.7 545 142.5 L 545 142.5 Z" />
<path class="st6" d="M 524.7 141.7 l 30.4 25.3 l 36.7 -36.2 l 1.1 -7.9 L 561.1 112 l -38 23.7 L 524.7 141.7 Z" />
<path class="st7" d="M 543.2 144.8 c -2.9 -2.6 -5.7 -5.3 -8.6 -7.9 l -4.9 3.9 l 9.8 7.7 L 543.2 144.8 Z" />
<path class="st7" d="M 543.2 144.8 l -3.6 3.7 l 7.9 6.2 c 1.1 -1 2.2 -2 3.3 -3 C 548.2 149.4 545.7 147.1 543.2 144.8 Z" />
<path class="st7" d="M 547.5 154.7 l 7.2 5.6 l 3 -2.9 c -2.3 -1.9 -4.6 -3.8 -6.9 -5.8 C 549.7 152.6 548.6 153.6 547.5 154.7 L 547.5 154.7 Z" />
<path class="st12" d="M 534.6 136.9 c -2.1 -1.9 -4.2 -3.8 -6.3 -5.7 l -5.1 4.4 l 6.5 5.1 L 534.6 136.9 Z" />
<path class="st12" d="M 544.6 128.9 c -2.6 -1.7 -5.2 -3.3 -7.9 -4.8 l -8.3 7.2 c 2.1 1.9 4.2 3.8 6.3 5.7 C 537.9 134.3 541.3 131.6 544.6 128.9 L 544.6 128.9 Z" />
<path class="st7" d="M 550.8 151.6 c 2.2 2 4.5 3.9 6.9 5.8 l 10.5 -10.3 c -2 -1.8 -4.1 -3.5 -6.2 -5.3 C 558.2 145.1 554.5 148.3 550.8 151.6 L 550.8 151.6 Z" />
<path class="st12" d="M 553.2 134.9 c -3.3 3.3 -6.7 6.6 -10 9.9 c 2.5 2.3 5 4.6 7.6 6.8 c 3.7 -3.3 7.4 -6.6 11.1 -9.8 C 559.1 139.5 556.1 137.1 553.2 134.9 L 553.2 134.9 Z" />
<path class="st7" d="M 553.2 134.9 c -2.8 -2.1 -5.6 -4.1 -8.6 -6 c -3.3 2.7 -6.7 5.4 -10 8.1 c 2.9 2.6 5.7 5.3 8.6 7.9 C 546.5 141.5 549.8 138.2 553.2 134.9 Z" />
<path class="st12" d="M 555.5 120 c -2.3 -2.1 -4.5 -4.2 -6.9 -6.3 L 536.7 124 c 2.7 1.5 5.3 3.2 7.9 4.8 L 555.5 120 Z" />
<path class="st5" d="M 562 126.3 c -2.2 -2.1 -4.3 -4.3 -6.5 -6.3 l -10.9 8.9 c 2.9 1.9 5.8 3.9 8.6 6 C 556.1 132 559 129.2 562 126.3 Z" />
<path class="st7" d="M 562 126.3 c -3 2.8 -5.9 5.7 -8.9 8.6 c 3 2.2 5.9 4.6 8.8 6.9 c 2.8 -2.4 5.5 -4.7 8.3 -7 C 567.6 131.9 564.8 129.1 562 126.3 L 562 126.3 Z" />
<path class="st7" d="M 561.9 141.8 c 2.1 1.7 4.2 3.5 6.2 5.3 l 7 -6.9 c -1.6 -1.8 -3.2 -3.6 -4.9 -5.4 C 567.5 137.1 564.7 139.5 561.9 141.8 Z M 572.3 106.3 l -7.8 -6.3 l -4.8 4.2 c 2.8 1.8 5.6 3.7 8.4 5.6 C 569.5 108.6 570.9 107.4 572.3 106.3 Z" />
<path class="st7" d="M 578.3 111.1 l -6 -4.8 c -1.4 1.1 -2.8 2.3 -4.2 3.4 c 2.2 1.5 4.5 3.1 6.7 4.7 C 575.9 113.3 577.1 112.2 578.3 111.1 Z" />
<path class="st7" d="M 578.3 111.1 c -1.2 1.1 -2.4 2.2 -3.5 3.3 c 3.6 2.6 7.2 5.1 10.8 7.7 l 3.2 -2.6 L 578.3 111.1 Z M 585.6 122.1 l 4.6 3.3 l 2.7 -2.6 l -4.1 -3.3 L 585.6 122.1 Z M 568.1 109.7 c -2.8 -1.9 -5.5 -3.7 -8.4 -5.6 l -5.2 4.5 c 2.6 2 5.2 3.9 7.8 5.8 C 564.2 112.9 566.1 111.3 568.1 109.7 L 568.1 109.7 Z" />
<path class="st7" d="M 574.8 114.4 c -2.2 -1.6 -4.5 -3.1 -6.7 -4.7 c -1.9 1.6 -3.8 3.1 -5.8 4.7 c 2.4 1.7 4.8 3.3 7.2 4.9 C 571.2 117.7 573 116 574.8 114.4 Z M 580.2 126.5 c 1.8 1.2 3.5 2.3 5.3 3.5 l 4.7 -4.6 l -4.6 -3.3 L 580.2 126.5 Z" />
<path class="st7" d="M 574.8 114.4 c -1.8 1.7 -3.6 3.3 -5.3 5 c 3.6 2.4 7.2 4.8 10.8 7.2 l 5.3 -4.4 C 582 119.5 578.4 116.9 574.8 114.4 L 574.8 114.4 Z M 562.3 114.4 c -2.7 -1.9 -5.3 -3.8 -7.8 -5.8 l -5.8 5 c 2.3 2.1 4.6 4.1 6.9 6.3 L 562.3 114.4 Z M 569.4 119.3 c -2.4 -1.6 -4.8 -3.2 -7.2 -4.9 l -6.8 5.6 c 2.2 2.1 4.4 4.2 6.5 6.3 C 564.5 124 567 121.7 569.4 119.3 Z" />
<path class="st37" d="M 569.4 119.3 c -2.5 2.3 -4.9 4.7 -7.4 7 c 2.8 2.8 5.5 5.6 8.2 8.5 c 3.3 -2.8 6.7 -5.5 10 -8.3 C 576.6 124.1 573 121.7 569.4 119.3 L 569.4 119.3 Z" />
<path class="st7" d="M 570.3 134.8 c 1.7 1.8 3.3 3.6 4.9 5.4 l 10.3 -10.2 c -1.7 -1.2 -3.5 -2.3 -5.3 -3.5 C 576.9 129.3 573.6 132.1 570.3 134.8 L 570.3 134.8 Z" />
<path class="st38" d="M 520.1 153.4 c 1.8 -1.6 6.1 -0.6 9.9 2.5 c 4.1 3.2 6.1 7.4 4.5 9.4 c -0.1 0.1 -0.2 0.2 -0.3 0.3 c -1.8 1.6 -6.1 0.6 -9.9 -2.5 c -4 -3.2 -6.1 -7.4 -4.5 -9.4 C 519.9 153.5 520 153.4 520.1 153.4 L 520.1 153.4 Z" />
<path class="st39" d="M 532.8 160.1 c -0.9 -1.4 -2 -2.7 -3.3 -3.7 c -3.2 -2.5 -6.7 -3.3 -8.2 -2 c -0.1 0.1 -0.2 0.2 -0.2 0.2 c -0.9 1.1 -0.4 3 1 5 C 525.4 161.2 529 160.8 532.8 160.1 L 532.8 160.1 Z" />
<path class="st30" d="M 522.1 159.6 c 0.8 1 1.7 2 2.7 2.8 c 3.2 2.5 6.7 3.3 8.2 2 c 0.1 -0.1 0.2 -0.2 0.2 -0.2 c 0.7 -0.9 0.5 -2.5 -0.4 -4.1 C 529.1 160.8 525.4 161.2 522.1 159.6 Z" />
<g>
	<circle class="st40" cx="241.2" cy="225.9" r="64.4" />
	<path class="st40" d="M 160.3 270.1 c -2.8 -0.2 -54.8 0.7 -61.8 -0.8 c -7.5 -1.6 -11.7 -8.9 -10.4 -24 c 0.3 -4 -1.8 -7 -8.7 -6 c -10.7 1.6 -23.5 -1.6 -12.6 -15.7 c 9.2 -11.9 25.1 -20.4 35.8 -22.3 c 21.5 -3.8 10.5 30.4 15 39 c 1.5 2.8 18.5 1.8 20.8 1.8 M 100.4 326.8 c 2.3 -10.7 0 -13.8 8.6 -19.2 s 39.8 -23.3 51.2 -25.7 s 19.1 -3 30.4 2.7 s 76.8 30.8 87.7 32.3 c 10.5 1.5 24.1 -2.9 27.9 -6.6" />
	<path class="st40" d="M 177.4 215.1 c -2.3 1.1 -38.2 19.7 -40.8 21.5 c 1.5 3.3 8.3 18.5 9.3 20.7 c 3.5 0.9 39.9 1.4 40.2 1.9 M 136.5 237.7 l 41.3 0.8 M 278.5 308.3 c -0.4 -29.7 41 -60.5 57 -18 M 65.1 326.2 c 0.9 -7.5 2.2 -14.9 3.9 -22.2 c 1 -3.8 2.7 -5.8 6.7 -8.1 c 7.1 -4.2 46.8 -25.7 47.8 -25.7 M 104.4 279.9 c -2.8 6.3 -1.1 23.8 7.2 25.8 M 91.1 264 c 0.4 -15 20.8 -26.1 25.9 -25 M 208.3 326.2 c -0.5 -4.6 -1 -33.2 -0.7 -34.4 M 239.9 326.2 c -2.1 -3.6 -11 -21.8 -11 -25.2 M 259.2 288 c 3 0.7 22.3 3.2 23.6 3 M 334.4 257 c -4.2 0.3 -36.4 0.6 -37.6 0.6 M 242.4 199.9 c 1.8 -8 -0.9 -18.9 -3.6 -18.9 c -8.6 -0.1 -24.8 13.8 -27.6 23.4 M 276.7 210.3 c 6.1 -6 17.4 -8.1 20.1 -7.1 c 1.9 0.7 1 11.6 -1.5 18.4 M 331.5 264.8 c 6.5 -23.8 38.6 -35.8 43.5 -9.7" />
	<path class="st40" d="M 341.5 264.8 c 3.4 0.4 24.5 4.6 34.5 -2.6 c 6.5 -4.7 0.4 -9.2 -6.8 -5.7 M 300.9 272.2 c -2.6 0 -9.3 -0.6 -13.9 -1.1 M 324.7 274 c 2 0.2 11.2 1.1 12.6 1.1 M 296.8 203.2 c -1.6 -3.6 -16 -9.5 -22.8 -7.5 c 0 0 -11.6 -11.8 -32.7 -11.7 M 292.8 216.3 c 13.5 20.3 -1.8 37.3 -8.1 53.1 M 349.1 265.9 c -2.4 2.1 -15.9 11.9 -18.8 14.2 M 280.8 317.2 c 10.1 -1.8 12.2 -23.6 16 -26.2 s 12.3 7.5 18.8 9 c 10.3 2.4 18.6 -0.3 22.9 -4.1 c 3.5 -3.1 0.5 -8 -9.2 -4.9 M 238.8 181 c -4 -1 -20.3 -1.1 -29.3 10.7 c -31.7 11.5 -32.4 66.8 -9.9 83.4" />
	<path class="st40" d="M 206.4 280.1 c -3.1 -5.5 1.1 -9 1.9 -10.6 c 2.6 -5.7 0.1 -15.3 3.2 -21.1 c 5.4 -10.3 23 -8.9 31.5 -3.2 c 17.9 12.1 30.4 7.4 38.5 1.5 c 7.6 -5.6 11.7 -5.2 9.3 2.5 c -1.9 6.4 -6.9 11.8 -6.2 15.7 s -0.2 8.8 -3.4 11.5" />
	
		<ellipse class="st40" transform="matrix(0.9975, -0.0711479, 0.0711479, 0.9975, -19.154, 18.6851)" cx="252.7" cy="278.2" rx="4.3" ry="3.1" />
	<path class="st40" d="M 266.1 313.6 c -2.8 -7.9 5.7 -23 11.7 -23 M 323.4 273 c -1.8 -6.6 1.3 -13.8 4.7 -15.8 M 208.3 322.3 c 3.8 -5.1 21.9 -8.8 27.4 -4.3" />
	<circle class="st40" cx="451.5" cy="208.3" r="59.3" />
	<path class="st40" d="M 413.1 253.6 c -8.6 -12.9 -11.1 -32 -2.8 -51.8 c 2 -4.7 5.3 -8.8 9.6 -11.6 c 3.3 -7.7 10.9 -10.5 14.7 -11.2 c 4.2 1.8 7.7 8.3 8.2 12.7 M 423.7 195.8 c 0.4 -3.2 3.9 -11.5 11 -16.8 M 488.4 254.8 c 2.6 -2.2 7.8 -10.4 5.1 -16.6 c -2.9 -6.7 6.4 -32 -4.5 -38.8 c 0.6 -4.6 1.2 -11.3 -1.3 -15.3 c -4.4 -1.3 -12.2 2.3 -16 4.8 c -7.8 -3.7 -16.3 -6.7 -31 -4.8 M 474 194.8 c 3.2 -6 12.1 -11.6 13.7 -10.8" />
	<path class="st40" d="M 422.6 260.1 c -4.1 -5.3 -2.7 -9.5 -1.4 -13.1 s -2.8 -12.3 -1.3 -19.2 c 2.1 -9.6 12.5 -12.4 18.3 -12.4 c 7.8 0 22.1 7.2 28.5 6.7 c 6.4 -0.7 12.7 -2.7 18.3 -5.8 c 4.7 -2.6 7.3 2.8 5.8 9.5 c -2.3 10.5 3.6 10.6 3.3 17 M 476.6 268.8 c 3.4 5.1 18.9 13 33.4 8.1 c 15.6 -5.3 2.8 -11.1 -6.6 -7.5 M 472.3 274.6 c 7.3 -33 36.2 -27.1 40.5 -6.3 M 416.6 298.4 c 1.9 -33.2 37.2 -24.6 33 -1.8 M 464.1 271.4 c 1.3 0.4 4 2.3 4 5" />
	<path class="st40" d="M 429.2 263.3 c -0.3 3.1 2.2 5.3 4.6 6.8 c 3.8 2.8 22.5 7.4 30.8 0.9 c 1.9 -1.6 3.6 -4.2 3.6 -5.9 M 418.7 296.7 c 3 4 18 11.6 30.9 7 c 11.7 -4.2 1.9 -9.7 -7.4 -5.7 M 431 268.3 c -4.7 1.8 -8.6 9.9 -8.7 13.5 M 598.6 277.5 c -32.7 -0.7 -58.8 -27.7 -58.1 -60.5 s 27.7 -58.8 60.5 -58.1 c 32.7 0.7 58.8 27.7 58.1 60.5 c -0.3 13 -4.8 25.5 -12.8 35.7" />
	<path class="st40" d="M 669.3 273.6 c -0.4 -5.1 -1.2 -18.4 -2.2 -23.5 c -5.1 0.7 -43.5 11.2 -48 13.5 c -2.7 5 -5 10.2 -7 15.5 c 3 5.4 19.2 37.9 20.2 40.6 c 4.5 -1.6 36.4 -17.1 38.1 -17.6 c 0 -0.9 0.3 -3.7 0.3 -5.1" />
	<path class="st40" d="M 632.3 319.7 l 3.4 -7 L 619 263.6 M 669.9 297.5 L 635.6 313 M 630.9 265.5 c 1 -0.5 15.6 -5.5 17.5 -6 c 1 2.3 3.9 11 4.5 13 c -1.5 0.8 -14.8 6.7 -16 7.2 C 635.1 275.9 630.7 265.1 630.9 265.5 Z M 686.6 326.3 c 1 -10.5 -4.6 -29.9 -21.6 -30.2 c -8.2 -3.5 -5.9 -17.5 4 -19.1 c 25.2 1.4 48.6 25.8 45.8 50.2" />
	<path class="st40" d="M 670.7 276.5 c 0 -1.9 -2.4 -4.9 -7.3 -4.9 c -17.2 0 -18 26.5 -4.3 28.6 c 4.7 0.7 7.9 -2.1 9.9 -3.6 M 676.8 300.3 c -2.2 -5.9 4.2 -16.6 13.6 -16.6 M 686.4 319.2 c 4 -11 23.9 -10.4 27.2 -6.3 M 673.7 327.2 c -3.2 -3.8 -7.7 -19.4 -7.7 -23.1 M 617.2 325.6 c -1.1 -4 -8.1 -31.9 -7.3 -34.9 c -3.8 11.4 -11.1 29.6 -35.5 29.6 c -37 0 -48.5 -15.1 -51.8 -30.9 c -1.1 -5.2 -0.2 -11.8 8.3 -9.6 c 13.7 -3.4 25 7.9 27.5 11.9" />
	<path class="st40" d="M 615.1 271.6 c -4.3 -3.9 -12.6 -2.9 -17.5 8.2 c -2 4.6 -9.8 17.3 -14.4 18.1 c -5.7 1.1 -24.7 -6.2 -29.8 -7.2 M 592.9 277 c 5.9 -22.1 43.8 -31.5 55 -24.1 M 573.6 296.6 c -6 0.9 -13.5 17.4 -6.6 23.4" />
	<ellipse class="st40" cx="464.1" cy="250.7" rx="4" ry="1.9" />
	<path class="st40" d="M 641.8 250.1 c 21.9 -27 -4.1 -88.6 -61.1 -58.5 c -6.3 -3.9 -13.7 -5.4 -21 -4.2 c -6.4 4.4 -7 20.8 -7 24.9" />
	<path class="st40" d="M 597.4 185.1 c 2.5 -3.3 7 -7.6 10.5 -8.8 c 6.2 1.6 11.8 5.1 16 10 M 556.5 207.1 c -2.4 2.2 -9.7 12.8 -5.7 22.8 s 10.4 22.6 11 28.5 c 0.6 5.9 8.8 11.3 12.6 13.5" />
</g>
</svg>